<?xml version="1.0" encoding="utf-8"?>
<!-- Generator: Adobe Illustrator 21.1.0, SVG Export Plug-In . SVG Version: 6.00 Build 0)  -->
<svg version="1.1" id="Layer_1" xmlns="http://www.w3.org/2000/svg" xmlns:xlink="http://www.w3.org/1999/xlink" x="0px" y="0px"
	 viewBox="0 0 50 50" style="enable-background:new 0 0 50 50;" xml:space="preserve">
<style type="text/css">
	.st0{fill:none;}
	.st1{fill:#168A93;}
</style>
<g>
	<path class="st0" d="M25,6C14.5,6,6,14.5,6,25s8.5,19,19,19s19-8.5,19-19S35.5,6,25,6z"/>
	<path class="st1" d="M25,0C11.2,0,0,11.2,0,25s11.2,25,25,25s25-11.2,25-25S38.8,0,25,0z M25,44C14.5,44,6,35.5,6,25S14.5,6,25,6
		s19,8.5,19,19S35.5,44,25,44z"/>
</g>
</svg>
